<svg id="svg" version="1.1" xmlns="http://www.w3.org/2000/svg" xmlns:xlink="http://www.w3.org/1999/xlink" width="400" height="400" viewBox="0, 0, 400,400"><g id="svgg"><path id="path0" d="M61.609 54.129 C 59.398 54.625,56.865 56.972,56.162 59.174 C 52.546 70.510,52.826 73.126,57.963 76.000 C 62.042 78.282,62.156 78.725,60.369 85.370 C 58.957 90.625,57.795 91.803,55.056 90.762 C 53.608 90.212,53.502 88.566,54.668 84.722 C 54.843 84.145,54.561 84.074,52.092 84.074 L 49.319 84.074 48.733 86.647 C 47.162 93.558,49.667 96.630,56.555 96.239 C 61.631 95.951,63.351 94.154,65.368 87.037 C 68.369 76.440,68.103 75.139,62.234 71.731 C 59.102 69.912,58.904 69.310,60.010 64.942 C 61.100 60.637,62.048 59.259,63.922 59.259 C 65.650 59.259,66.822 60.445,66.520 61.890 C 66.397 62.480,66.191 63.471,66.061 64.091 L 65.826 65.220 68.546 65.110 L 71.265 65.000 71.785 62.865 C 73.362 56.389,68.839 52.505,61.609 54.129 M105.890 54.068 C 101.165 54.897,100.613 55.791,97.408 67.798 C 95.970 73.185,94.707 77.875,94.600 78.221 C 94.462 78.671,93.916 78.882,92.687 78.962 L 90.966 79.074 90.303 81.296 C 89.433 84.213,89.382 84.074,91.321 84.074 C 92.758 84.074,92.984 84.172,92.823 84.722 C 92.312 86.470,90.000 95.450,90.000 95.687 C 90.000 95.836,91.199 95.909,92.665 95.850 L 95.331 95.741 96.864 90.000 L 98.396 84.259 101.235 84.151 C 103.207 84.076,104.074 84.174,104.074 84.473 C 104.074 84.909,101.575 94.510,101.223 95.429 C 101.073 95.818,101.644 95.926,103.849 95.926 C 105.399 95.926,106.667 95.833,106.667 95.720 C 106.667 95.606,108.665 88.060,111.107 78.951 C 113.549 69.841,115.651 61.626,115.779 60.695 C 116.426 55.977,111.983 53.000,105.890 54.068 M179.010 54.075 C 176.169 54.665,174.160 56.148,173.367 58.241 C 173.008 59.189,167.778 78.354,167.778 78.722 C 167.778 78.814,166.965 78.889,165.971 78.889 L 164.164 78.889 163.564 81.280 C 163.233 82.595,162.963 83.761,162.963 83.872 C 162.963 83.983,163.620 84.074,164.423 84.074 C 166.388 84.074,166.380 83.934,164.769 89.815 C 162.932 96.519,162.823 95.979,165.984 95.850 L 168.635 95.741 170.151 90.000 L 171.667 84.259 174.537 84.151 C 176.301 84.085,177.407 84.188,177.407 84.419 C 177.407 84.725,175.298 92.840,174.584 95.278 C 174.416 95.854,174.699 95.926,177.127 95.926 L 179.860 95.926 184.440 78.796 C 189.279 60.695,189.597 58.895,188.327 56.751 C 187.032 54.566,182.673 53.314,179.010 54.075 M227.858 54.404 C 224.243 55.652,223.536 56.723,221.679 63.756 C 219.496 72.023,219.927 73.442,225.538 76.481 C 228.693 78.191,228.808 78.685,227.380 84.440 C 226.144 89.425,225.532 90.547,223.812 90.978 C 221.333 91.600,220.377 89.552,221.230 85.446 L 221.521 84.041 218.824 84.150 L 216.127 84.259 215.457 87.037 C 213.967 93.223,216.335 96.296,222.593 96.296 C 228.538 96.296,230.090 94.588,232.604 85.283 C 234.991 76.443,234.504 74.621,228.963 71.676 C 225.804 69.997,225.612 69.342,226.876 64.570 C 228.011 60.288,228.794 59.259,230.918 59.259 C 233.140 59.259,233.902 61.566,232.708 64.677 C 232.554 65.080,233.086 65.185,235.267 65.185 L 238.021 65.185 238.455 63.305 C 240.107 56.150,235.064 51.915,227.858 54.404 M320.862 54.075 C 317.504 54.772,315.599 56.512,314.684 59.718 C 308.103 82.771,306.251 91.710,307.654 93.637 C 310.638 97.735,320.084 97.096,322.381 92.641 C 323.372 90.718,330.840 61.717,330.843 59.776 C 330.851 55.436,326.440 52.917,320.862 54.075 M341.377 54.088 C 337.076 55.162,336.158 56.547,333.906 65.354 C 332.226 71.921,332.800 73.482,337.955 76.374 C 341.436 78.326,341.536 78.705,340.067 84.350 C 338.626 89.893,338.229 90.622,336.483 90.950 C 333.554 91.500,332.851 89.880,333.934 85.075 L 334.167 84.040 331.437 84.150 L 328.707 84.259 328.278 86.111 C 326.660 93.098,328.787 96.269,335.104 96.288 C 341.169 96.306,342.768 94.622,345.184 85.665 C 347.652 76.513,347.192 74.646,341.773 71.840 C 338.526 70.158,338.249 69.015,339.798 63.685 C 340.804 60.222,341.610 59.259,343.502 59.259 C 345.740 59.259,346.521 61.498,345.348 64.554 C 345.133 65.114,345.418 65.185,347.879 65.185 L 350.653 65.185 351.067 63.540 C 352.769 56.779,348.250 52.371,341.377 54.088 M76.830 63.949 L 74.258 73.519 72.555 73.629 L 70.852 73.740 70.241 75.938 C 69.422 78.883,69.406 78.832,71.226 78.961 L 72.822 79.074 70.672 87.037 C 68.020 96.859,67.976 95.926,71.097 95.926 L 73.675 95.926 74.193 94.167 C 74.477 93.199,75.507 89.387,76.480 85.696 L 78.249 78.985 81.629 78.808 C 88.974 78.424,90.152 77.102,92.946 66.119 C 95.396 56.487,94.168 54.739,84.794 54.511 L 79.402 54.379 76.830 63.949 M123.528 54.873 C 123.429 55.147,122.415 58.866,121.275 63.138 C 118.824 72.317,119.231 71.481,117.215 71.481 C 115.449 71.481,115.363 71.613,114.589 75.483 C 114.353 76.661,114.359 76.667,115.880 76.667 C 117.781 76.667,117.856 75.819,115.000 86.580 C 113.676 91.568,112.593 95.712,112.593 95.788 C 112.593 95.864,113.801 95.926,115.278 95.926 L 117.963 95.926 120.520 86.296 L 123.077 76.667 125.168 76.667 C 128.851 76.667,128.860 76.783,125.982 87.599 L 123.815 95.741 126.397 95.850 C 129.594 95.986,128.994 96.962,131.524 87.508 C 134.244 77.342,134.292 75.905,131.947 74.676 L 130.949 74.154 132.729 73.318 C 137.999 70.840,140.181 57.991,135.783 55.328 C 134.282 54.419,123.831 54.031,123.528 54.873 M142.295 56.204 C 142.061 57.171,141.763 58.338,141.632 58.796 C 141.401 59.609,141.466 59.630,144.256 59.630 C 146.391 59.630,147.072 59.747,146.940 60.093 C 146.704 60.711,137.407 95.459,137.407 95.721 C 137.407 95.834,138.616 95.924,140.093 95.922 L 142.778 95.919 147.593 77.867 L 152.407 59.815 155.233 59.707 L 158.059 59.600 158.659 57.461 C 158.989 56.284,159.259 55.124,159.259 54.883 C 159.259 54.558,157.114 54.444,150.990 54.444 L 142.720 54.444 142.295 56.204 M162.402 54.907 C 162.184 55.507,151.481 95.551,151.481 95.764 C 151.481 95.853,152.694 95.926,154.176 95.926 L 156.870 95.926 162.324 75.452 C 165.324 64.191,167.778 54.858,167.778 54.711 C 167.778 54.219,162.582 54.409,162.402 54.907 M191.186 71.577 C 184.893 95.237,184.936 95.475,195.593 95.847 L 200.259 96.010 200.870 93.577 C 201.206 92.239,201.481 91.053,201.481 90.942 C 201.481 90.831,199.763 90.741,197.662 90.741 C 194.282 90.741,193.746 90.650,193.000 89.955 C 191.928 88.956,191.705 90.060,196.886 70.661 C 199.210 61.959,201.111 54.751,201.111 54.642 C 201.111 54.533,199.903 54.446,198.426 54.448 L 195.741 54.451 191.186 71.577 M242.295 56.204 C 242.061 57.171,241.763 58.338,241.632 58.796 C 241.401 59.609,241.466 59.630,244.256 59.630 C 246.391 59.630,247.072 59.747,246.940 60.093 C 246.704 60.711,237.407 95.459,237.407 95.721 C 237.407 95.834,238.616 95.924,240.093 95.922 L 242.778 95.919 247.593 77.867 L 252.407 59.815 255.233 59.707 L 258.059 59.600 258.659 57.461 C 258.989 56.284,259.259 55.124,259.259 54.883 C 259.259 54.558,257.114 54.444,250.990 54.444 L 242.720 54.444 242.295 56.204 M257.824 71.389 C 252.585 90.944,252.617 90.778,253.617 93.039 C 255.460 97.206,264.221 97.642,267.512 93.732 C 268.694 92.327,268.445 93.151,274.215 71.515 L 278.766 54.444 276.076 54.444 L 273.386 54.444 272.826 56.389 C 272.519 57.458,270.490 65.000,268.319 73.148 C 266.147 81.296,264.145 88.506,263.870 89.169 C 262.998 91.270,259.608 91.706,258.887 89.810 C 258.623 89.115,265.206 62.971,267.628 55.093 C 267.806 54.516,267.527 54.444,265.096 54.444 L 262.365 54.444 257.824 71.389 M283.513 54.907 C 283.275 55.563,272.593 95.561,272.593 95.795 C 272.593 95.901,275.468 95.932,278.981 95.864 C 286.207 95.725,288.152 95.169,289.598 92.829 C 290.393 91.543,298.040 63.475,298.154 61.425 C 298.365 57.641,297.291 55.712,294.512 54.879 C 292.487 54.272,283.735 54.295,283.513 54.907 M304.646 56.759 C 304.304 58.032,301.821 67.324,299.127 77.407 L 294.230 95.741 296.789 95.850 C 298.197 95.911,299.429 95.880,299.527 95.781 C 299.626 95.683,302.102 86.651,305.030 75.710 C 307.959 64.769,310.453 55.509,310.573 55.131 C 310.772 54.504,310.550 54.444,308.029 54.444 L 305.267 54.444 304.646 56.759 M109.054 59.488 C 110.603 60.082,110.531 60.867,108.092 70.043 L 105.741 78.888 102.870 78.889 C 101.292 78.889,100.001 78.764,100.002 78.611 C 100.013 76.911,104.930 60.444,105.586 59.907 C 106.384 59.254,107.951 59.065,109.054 59.488 M182.987 60.024 C 183.890 60.927,184.012 60.210,181.160 70.784 L 179.025 78.704 176.179 78.812 C 174.039 78.893,173.337 78.801,173.348 78.442 C 173.409 76.403,178.163 60.513,178.887 59.927 C 180.009 59.018,182.029 59.066,182.987 60.024 M324.617 59.760 C 325.029 60.061,325.289 60.690,325.270 61.340 C 325.226 62.902,318.220 88.909,317.581 89.885 C 316.321 91.808,312.593 91.136,312.593 88.986 C 312.593 86.770,319.765 60.952,320.620 60.093 C 321.567 59.139,323.543 58.975,324.617 59.760 M87.841 60.243 C 88.793 61.104,87.791 66.964,85.916 71.503 C 85.172 73.304,79.063 74.973,79.748 73.189 C 79.857 72.906,80.736 69.739,81.703 66.152 L 83.460 59.630 85.312 59.630 C 86.515 59.630,87.401 59.844,87.841 60.243 M131.915 60.243 C 132.847 61.086,132.749 62.846,131.551 66.815 C 130.314 70.911,129.599 71.574,126.598 71.409 L 124.539 71.296 125.979 65.926 C 126.771 62.972,127.494 60.347,127.586 60.093 C 127.842 59.389,131.097 59.502,131.915 60.243 M291.915 60.243 C 292.953 61.182,292.831 61.863,289.219 75.359 C 284.994 91.145,285.098 90.951,281.033 90.671 L 279.366 90.556 283.394 75.556 C 285.609 67.306,287.497 60.347,287.588 60.093 C 287.841 59.389,291.097 59.502,291.915 60.243 M195.502 120.649 C 191.739 122.481,148.849 147.570,147.932 148.476 L 147.037 149.360 147.037 159.981 C 147.037 172.114,146.809 171.251,150.580 173.379 C 153.023 174.758,153.022 174.566,150.586 175.941 C 149.482 176.564,148.375 177.319,148.126 177.619 C 147.728 178.099,147.567 178.095,146.796 177.590 C 146.103 177.136,145.752 177.104,145.127 177.438 C 144.363 177.848,144.381 177.887,145.687 178.633 L 147.037 179.405 147.037 186.567 L 147.037 193.730 146.204 193.289 C 145.745 193.047,142.396 191.118,138.760 189.003 C 134.181 186.340,131.931 185.228,131.439 185.384 C 130.326 185.737,130.646 185.965,139.065 190.803 L 147.013 195.370 147.025 197.719 L 147.037 200.068 144.754 198.785 L 142.472 197.503 138.437 199.863 C 133.533 202.730,135.300 203.048,125.969 197.618 C 119.272 193.720,117.953 193.078,117.379 193.437 C 117.006 193.670,116.734 193.892,116.776 193.931 C 116.818 193.970,120.727 196.262,125.464 199.024 L 134.077 204.048 138.171 201.653 C 143.076 198.785,141.748 198.744,147.236 201.933 L 151.838 204.607 149.900 205.814 C 147.496 207.311,147.798 207.326,144.727 205.556 C 141.605 203.756,142.694 203.573,136.989 206.852 C 134.330 208.380,132.012 209.630,131.838 209.630 C 131.664 209.630,126.810 206.893,121.051 203.548 C 112.484 198.573,110.454 197.535,109.888 197.838 C 109.015 198.305,107.718 197.446,120.661 204.974 L 131.878 211.499 136.915 208.575 L 141.952 205.651 144.495 207.117 L 147.037 208.583 147.037 218.760 C 147.037 229.771,147.050 229.849,149.125 231.259 L 150.453 232.161 149.130 233.025 C 146.341 234.847,146.395 236.809,149.284 238.604 C 150.301 239.237,151.004 239.873,150.845 240.017 C 150.686 240.162,148.615 241.395,146.243 242.759 L 141.930 245.238 137.106 242.434 C 134.453 240.891,132.097 239.630,131.871 239.630 C 131.407 239.630,110.466 251.705,109.681 252.424 C 109.261 252.809,109.303 252.927,109.933 253.127 C 110.494 253.305,113.432 251.774,121.280 247.216 L 131.870 241.065 136.730 243.884 C 139.403 245.434,141.699 246.736,141.833 246.777 C 141.968 246.818,144.469 245.461,147.392 243.760 L 152.707 240.668 154.224 241.506 C 157.437 243.280,157.763 242.830,149.984 247.359 C 141.641 252.217,143.012 251.995,138.244 249.259 C 136.114 248.037,134.233 247.037,134.065 247.037 C 133.579 247.037,117.234 256.640,117.114 256.996 C 116.667 258.320,118.942 257.354,126.167 253.154 L 134.123 248.528 138.318 250.957 L 142.513 253.385 150.533 248.712 L 158.553 244.040 160.595 245.208 C 161.718 245.850,162.585 246.413,162.522 246.459 C 162.459 246.504,155.263 250.683,146.531 255.744 C 132.665 263.781,130.735 265.006,131.296 265.416 C 131.817 265.797,132.088 265.793,132.729 265.394 C 135.950 263.386,163.739 247.407,164.009 247.407 C 164.676 247.407,167.778 249.329,167.593 249.628 C 167.490 249.795,163.991 251.906,159.817 254.318 C 155.644 256.730,152.232 258.787,152.236 258.889 C 152.241 258.991,153.989 260.061,156.122 261.266 C 158.255 262.472,160.000 263.573,160.000 263.713 C 160.000 263.854,158.042 265.096,155.648 266.475 C 144.835 272.705,144.312 273.045,144.973 273.415 C 145.318 273.608,145.882 273.658,146.226 273.526 C 147.251 273.133,162.963 263.912,162.958 263.707 C 162.955 263.603,161.206 262.519,159.071 261.296 C 156.936 260.074,155.189 258.987,155.187 258.880 C 155.186 258.773,158.417 256.813,162.367 254.524 L 169.549 250.363 171.607 251.544 C 174.129 252.993,174.354 252.675,168.337 256.157 C 165.590 257.746,163.466 259.163,163.616 259.306 C 163.766 259.448,165.865 260.716,168.280 262.123 C 170.695 263.530,172.664 264.836,172.655 265.026 C 172.644 265.285,154.503 276.168,152.407 277.173 C 151.841 277.445,153.066 278.171,153.698 277.937 C 157.035 276.705,175.946 265.005,175.330 264.553 C 174.945 264.271,172.839 263.033,170.650 261.802 C 168.461 260.571,166.585 259.426,166.481 259.258 C 166.291 258.951,174.672 253.952,175.378 253.951 C 175.586 253.951,180.169 256.503,185.563 259.623 C 201.203 268.668,199.203 268.657,214.473 259.790 C 219.887 256.646,224.535 254.074,224.801 254.074 C 225.543 254.074,233.726 258.923,233.527 259.245 C 233.431 259.401,231.265 260.731,228.713 262.202 C 226.162 263.673,224.074 264.930,224.074 264.996 C 224.074 265.470,246.668 278.124,247.171 277.932 C 248.237 277.522,247.951 277.324,237.583 271.296 C 231.978 268.037,227.397 265.204,227.404 265.000 C 227.412 264.796,229.374 263.494,231.764 262.107 C 234.155 260.719,236.237 259.460,236.391 259.308 C 236.545 259.157,234.415 257.725,231.657 256.126 C 226.070 252.887,226.133 252.987,228.732 251.503 L 230.605 250.433 237.710 254.549 C 241.618 256.813,244.815 258.766,244.815 258.890 C 244.815 259.013,243.066 260.105,240.928 261.317 C 238.790 262.528,237.040 263.603,237.039 263.706 C 237.031 264.420,254.191 273.765,254.916 273.441 C 255.757 273.066,255.473 272.880,243.426 265.905 C 239.257 263.491,239.214 263.923,243.887 261.276 C 246.024 260.065,247.774 258.989,247.776 258.884 C 247.777 258.779,244.356 256.714,240.174 254.293 C 231.238 249.122,231.777 249.659,234.211 248.343 L 236.158 247.289 252.061 256.553 C 264.875 264.018,268.097 265.748,268.651 265.467 C 269.593 264.987,270.463 265.546,253.244 255.556 C 244.740 250.623,237.867 246.451,237.969 246.286 C 238.072 246.121,238.922 245.557,239.859 245.033 L 241.562 244.081 247.170 247.358 C 250.254 249.160,253.841 251.249,255.140 252.000 L 257.502 253.366 261.722 250.965 L 265.943 248.564 273.873 253.169 C 281.091 257.360,282.963 258.156,282.963 257.034 C 282.963 256.719,266.471 247.037,265.935 247.037 C 265.759 247.037,263.894 248.037,261.791 249.259 C 257.077 251.998,258.425 252.217,250.039 247.354 L 242.922 243.226 245.162 241.963 L 247.403 240.700 252.740 243.823 L 258.077 246.946 263.131 244.004 L 268.185 241.063 278.750 247.214 C 288.606 252.952,290.803 253.951,290.726 252.660 C 290.708 252.365,269.133 239.871,268.342 239.698 C 268.047 239.634,265.629 240.852,262.967 242.405 L 258.128 245.229 253.469 242.564 L 248.811 239.900 250.497 238.850 C 253.780 236.807,253.545 234.097,249.943 232.450 C 249.540 232.266,249.551 232.175,250.000 231.978 C 250.306 231.843,251.097 231.193,251.759 230.533 L 252.963 229.333 252.963 218.974 L 252.963 208.614 255.524 207.132 L 258.084 205.649 263.128 208.573 L 268.171 211.497 279.476 204.925 C 289.260 199.236,290.696 198.290,290.150 197.892 C 289.804 197.638,289.420 197.488,289.297 197.558 C 289.175 197.628,284.451 200.373,278.801 203.658 C 273.150 206.942,268.369 209.630,268.175 209.630 C 267.982 209.630,265.825 208.462,263.382 207.035 C 260.938 205.608,258.699 204.348,258.406 204.236 C 258.112 204.123,256.641 204.759,255.137 205.648 L 252.403 207.265 250.282 205.926 L 248.161 204.588 252.295 202.202 C 254.569 200.889,256.702 199.678,257.036 199.510 C 257.469 199.293,258.832 199.901,261.780 201.625 L 265.917 204.044 273.977 199.374 C 284.139 193.486,283.453 193.957,282.624 193.439 C 282.081 193.099,281.373 193.370,278.666 194.950 C 276.854 196.008,273.246 198.098,270.650 199.593 L 265.930 202.311 261.695 199.902 L 257.460 197.492 255.119 198.901 C 253.831 199.675,252.767 200.281,252.753 200.247 C 252.740 200.213,252.823 199.104,252.938 197.783 L 253.148 195.381 261.191 190.746 C 265.615 188.197,269.240 185.997,269.247 185.858 C 269.304 184.702,267.318 185.484,261.249 189.007 C 257.608 191.121,254.255 193.048,253.796 193.290 L 252.963 193.730 252.963 186.567 L 252.963 179.405 254.313 178.633 C 255.626 177.883,255.641 177.850,254.862 177.433 C 254.234 177.096,253.900 177.117,253.315 177.527 C 252.637 178.002,252.330 177.895,249.978 176.365 L 247.387 174.680 248.601 173.951 C 253.233 171.165,252.963 172.050,252.963 159.681 L 252.963 149.398 251.944 148.434 C 250.913 147.458,207.303 122.116,203.889 120.509 C 201.239 119.261,198.251 119.311,195.502 120.649 M127.742 303.693 C 124.746 304.227,122.709 305.703,121.849 307.963 C 120.465 311.597,113.651 338.481,113.651 340.304 C 113.651 344.265,116.261 346.058,121.717 345.843 C 128.383 345.581,128.410 345.537,133.379 326.816 C 138.136 308.893,138.254 308.028,136.262 305.759 C 134.667 303.942,131.140 303.087,127.742 303.693 M201.667 303.680 C 197.649 304.658,196.567 306.132,194.637 313.254 C 192.437 321.375,192.942 323.185,198.170 325.905 C 201.668 327.725,201.814 328.321,200.250 334.341 C 198.730 340.192,197.554 341.505,194.843 340.382 C 193.471 339.814,193.283 339.009,193.910 336.386 C 194.189 335.216,194.424 334.134,194.431 333.981 C 194.439 333.829,193.215 333.704,191.713 333.704 L 188.981 333.704 188.347 336.969 C 187.071 343.538,189.512 346.242,196.359 345.846 C 201.712 345.536,203.151 343.834,205.537 334.986 C 207.950 326.040,207.429 324.122,201.806 321.273 C 198.728 319.713,198.547 319.116,199.744 314.481 C 200.886 310.062,201.748 308.889,203.852 308.889 C 206.160 308.889,206.692 310.356,205.698 313.981 C 205.302 315.426,210.590 315.246,211.159 313.796 C 213.749 307.202,208.812 301.940,201.667 303.680 M298.853 303.698 C 296.560 304.100,295.043 304.936,293.910 306.420 C 292.783 307.898,284.815 337.231,284.815 339.902 C 284.815 344.072,287.713 346.139,293.157 345.853 C 298.273 345.585,300.037 343.879,301.795 337.500 L 302.536 334.815 299.805 334.815 L 297.075 334.815 296.440 337.079 C 295.324 341.057,290.344 342.298,290.380 338.590 C 290.403 336.253,297.719 310.203,298.539 309.539 C 300.908 307.620,303.665 309.314,302.984 312.269 C 302.384 314.873,302.334 314.815,305.160 314.815 C 308.048 314.815,307.925 314.940,308.504 311.383 C 309.431 305.691,305.470 302.537,298.853 303.698 M79.465 304.497 C 79.320 304.923,76.131 316.795,74.834 321.739 C 74.437 323.256,74.385 323.296,72.715 323.406 C 71.056 323.515,70.990 323.565,70.548 325.068 C 69.468 328.742,69.420 328.519,71.289 328.519 C 72.210 328.519,72.963 328.579,72.963 328.652 C 72.963 328.726,71.963 332.513,70.741 337.068 C 69.519 341.623,68.519 345.396,68.519 345.453 C 68.519 345.509,69.732 345.556,71.215 345.556 L 73.912 345.556 76.150 337.130 L 78.389 328.704 81.951 328.469 C 88.894 328.013,90.239 326.654,92.567 317.745 C 94.802 309.193,94.635 306.718,91.709 304.965 C 90.191 304.056,79.752 303.657,79.465 304.497 M99.488 310.616 C 98.515 314.249,97.474 318.088,97.173 319.147 L 96.625 321.072 94.926 321.184 C 93.280 321.293,93.212 321.345,92.770 322.846 C 91.688 326.526,91.636 326.296,93.552 326.296 C 95.147 326.296,95.250 326.354,95.048 327.130 C 94.928 327.588,93.770 331.921,92.476 336.759 L 90.121 345.556 92.824 345.556 L 95.527 345.556 95.959 343.981 C 96.196 343.116,97.343 338.824,98.508 334.444 L 100.627 326.481 102.884 326.372 C 106.627 326.190,106.616 325.987,103.485 337.641 C 102.383 341.742,101.481 345.200,101.481 345.326 C 101.481 345.452,102.701 345.556,104.192 345.556 L 106.903 345.556 109.087 337.315 C 111.690 327.494,111.785 326.302,110.093 324.790 C 108.648 323.499,108.644 323.475,109.808 323.183 C 112.361 322.542,113.552 320.674,114.991 315.052 C 117.248 306.235,115.817 304.363,106.646 304.140 L 101.255 304.009 99.488 310.616 M142.277 309.537 C 139.741 318.692,139.578 320.796,141.299 322.224 C 142.096 322.886,142.005 323.083,140.529 323.877 C 138.281 325.088,137.743 326.310,135.143 336.107 L 132.685 345.370 135.276 345.480 C 138.431 345.614,137.692 346.891,140.377 336.663 C 142.857 327.219,143.322 326.296,145.601 326.296 C 148.747 326.296,148.781 327.026,146.110 337.183 C 144.990 341.440,144.074 345.065,144.074 345.239 C 144.074 345.413,145.236 345.556,146.656 345.556 L 149.239 345.556 149.786 343.611 C 153.610 330.039,153.971 327.453,152.342 325.271 L 151.600 324.277 153.190 323.269 C 155.324 321.915,155.910 320.627,158.136 312.382 C 159.177 308.526,160.117 305.079,160.224 304.722 C 160.399 304.146,160.117 304.074,157.677 304.074 L 154.935 304.074 152.986 311.386 C 150.501 320.711,150.294 321.111,147.963 321.111 C 144.715 321.111,144.829 319.086,148.856 305.278 L 149.208 304.074 146.499 304.074 L 143.791 304.074 142.277 309.537 M163.027 312.353 C 160.102 322.945,160.117 324.927,163.130 326.705 C 164.766 327.670,164.843 326.820,162.222 336.667 C 161.002 341.250,160.003 345.132,160.002 345.294 C 160.001 345.456,161.200 345.539,162.666 345.479 L 165.332 345.370 167.577 336.960 C 170.022 327.798,169.881 328.094,172.079 327.470 C 173.927 326.945,175.384 325.850,176.115 324.437 C 176.546 323.604,181.852 304.929,181.852 304.247 C 181.852 304.152,180.644 304.075,179.167 304.076 L 176.481 304.077 174.667 310.835 C 172.061 320.539,171.888 321.075,171.091 321.872 C 170.094 322.869,167.750 322.844,166.829 321.826 C 166.056 320.973,165.831 322.111,169.414 308.796 L 170.685 304.074 167.999 304.074 L 165.313 304.074 163.027 312.353 M223.519 304.256 C 223.315 304.324,222.703 304.478,222.158 304.597 C 219.314 305.222,218.240 307.068,216.154 314.913 L 214.555 320.926 212.762 321.111 L 210.969 321.296 210.340 323.796 L 209.711 326.296 211.337 326.296 C 212.231 326.296,212.960 326.421,212.956 326.574 C 212.952 326.727,212.286 329.352,211.476 332.407 C 208.593 343.280,209.640 345.118,218.912 345.472 L 223.565 345.649 224.052 343.473 C 224.320 342.276,224.619 341.088,224.716 340.833 C 224.852 340.481,223.956 340.370,220.966 340.370 C 215.042 340.370,214.887 340.115,216.688 333.333 C 217.310 330.991,217.982 328.454,218.180 327.697 L 218.541 326.320 222.673 326.216 L 226.806 326.111 227.436 323.611 L 228.067 321.111 224.033 321.111 C 221.815 321.111,220.000 321.031,220.000 320.934 C 220.000 320.836,220.574 318.641,221.276 316.055 C 223.037 309.566,223.129 309.484,228.862 309.314 L 233.262 309.183 233.853 306.830 C 234.178 305.536,234.444 304.387,234.444 304.276 C 234.444 304.063,224.153 304.044,223.519 304.256 M239.825 304.497 C 239.724 304.774,238.679 308.583,237.502 312.963 L 235.362 320.926 233.616 321.038 C 230.882 321.215,229.490 326.296,232.176 326.296 C 234.081 326.296,234.155 325.474,231.296 336.153 C 229.972 341.100,228.889 345.239,228.889 345.351 C 228.889 345.464,230.099 345.556,231.577 345.556 L 234.265 345.556 235.055 342.500 C 235.490 340.819,236.637 336.486,237.604 332.870 L 239.363 326.296 241.459 326.296 C 243.765 326.296,244.444 326.711,244.444 328.115 C 244.444 328.911,240.739 343.422,240.132 345.004 C 239.957 345.462,240.392 345.556,242.712 345.556 L 245.503 345.556 246.058 343.611 C 250.352 328.582,250.731 325.079,248.152 324.261 C 247.367 324.011,247.120 323.333,247.814 323.333 C 253.291 323.333,256.887 307.845,252.079 304.965 C 250.562 304.056,240.130 303.657,239.825 304.497 M260.562 305.278 C 259.821 309.483,255.556 340.402,255.556 341.570 C 255.556 344.530,256.943 345.927,259.883 345.925 C 264.114 345.921,264.128 345.896,272.550 323.050 L 279.478 304.259 276.901 304.149 C 273.750 304.015,274.968 301.673,267.551 322.120 C 264.111 331.602,261.245 339.020,261.183 338.605 C 261.090 337.987,265.582 306.898,266.079 304.722 C 266.210 304.150,265.907 304.074,263.501 304.074 L 260.774 304.074 260.562 305.278 M277.848 323.983 C 274.933 334.931,272.453 344.272,272.337 344.739 C 272.130 345.575,272.173 345.588,274.844 345.480 L 277.561 345.370 283.024 325.000 C 286.029 313.796,288.495 304.505,288.503 304.352 C 288.512 304.199,287.310 304.075,285.833 304.076 L 283.148 304.078 277.848 323.983 M319.419 304.422 C 316.089 305.219,314.894 306.860,313.335 312.778 C 312.691 315.222,311.918 318.088,311.617 319.147 L 311.070 321.072 309.370 321.184 C 307.724 321.293,307.656 321.345,307.215 322.846 C 306.135 326.520,306.087 326.296,307.956 326.296 C 308.876 326.296,309.630 326.369,309.630 326.458 C 309.630 326.547,308.946 329.164,308.110 332.275 C 305.122 343.394,306.677 345.787,316.688 345.478 L 320.154 345.370 320.576 343.889 C 320.808 343.074,321.109 341.949,321.246 341.389 L 321.496 340.370 317.600 340.370 C 311.255 340.370,311.143 339.786,315.039 326.944 C 315.210 326.379,315.750 326.296,319.284 326.296 C 321.511 326.296,323.333 326.254,323.333 326.203 C 323.333 326.151,323.655 324.984,324.048 323.610 L 324.763 321.111 320.715 321.111 C 318.488 321.111,316.667 321.000,316.667 320.864 C 316.667 320.026,319.071 311.857,319.566 311.013 C 320.352 309.671,321.925 309.264,326.325 309.261 L 329.873 309.259 330.298 307.500 C 330.532 306.532,330.830 305.366,330.960 304.907 L 331.198 304.074 325.877 304.112 C 322.950 304.133,320.044 304.272,319.419 304.422 M131.481 309.630 C 131.889 310.037,132.222 310.495,132.221 310.648 C 132.218 311.577,124.682 338.851,124.245 339.518 C 122.987 341.438,119.259 340.763,119.259 338.616 C 119.259 336.400,126.432 310.582,127.286 309.722 C 128.356 308.646,130.451 308.599,131.481 309.630 M87.937 309.841 C 89.057 310.962,87.156 320.071,85.367 322.151 C 84.497 323.162,80.000 323.900,80.000 323.031 C 80.000 322.674,83.139 310.796,83.517 309.722 C 83.761 309.029,87.218 309.122,87.937 309.841 M109.630 310.000 C 110.699 311.069,109.460 317.770,107.782 319.994 C 107.107 320.889,102.222 321.682,102.222 320.896 C 102.222 320.731,102.914 318.044,103.759 314.927 L 105.295 309.259 107.092 309.259 C 108.395 309.259,109.092 309.463,109.630 310.000 M248.212 309.872 C 249.494 311.033,247.938 318.612,246.076 320.278 C 244.968 321.268,240.491 321.556,240.852 320.614 C 240.957 320.340,241.658 317.799,242.409 314.966 C 243.161 312.133,243.853 309.690,243.947 309.537 C 244.282 308.992,247.520 309.246,248.212 309.872 " stroke="none" fill="#fafafb" fill-rule="evenodd"></path></g></svg>